<?xml version="1.0" encoding="UTF-8"?>
<svg id="Layer_1" xmlns="http://www.w3.org/2000/svg" version="1.1" xmlns:xlink="http://www.w3.org/1999/xlink" viewBox="0 0 595.28 595.28">
  <!-- Generator: Adobe Illustrator 29.8.1, SVG Export Plug-In . SVG Version: 2.1.1 Build 2)  -->
  <defs>
    <style>
      .st0 {
        fill: #fff;
      }

      .st1 {
        fill: url(#radial-gradient);
      }
    </style>
    <radialGradient id="radial-gradient" cx="302.49" cy="-75.48" fx="130.85" fy="-75.48" r="711.59" gradientUnits="userSpaceOnUse">
      <stop offset="0" stop-color="#e7ff57"/>
      <stop offset=".25" stop-color="#c4bf8d"/>
      <stop offset=".51" stop-color="#a685bd"/>
      <stop offset=".73" stop-color="#8f5ce1"/>
      <stop offset=".9" stop-color="#8242f6"/>
      <stop offset="1" stop-color="#7d39ff"/>
    </radialGradient>
  </defs>
  <rect class="st1" y="0" width="595.28" height="595.28" rx="145.31" ry="145.31"/>
  <g>
    <g>
      <path class="st0" d="M167.81,316.14c-.31-3.56-.52-7.06-.52-10.62v10.36h.05c1.31,57.43,48.28,103.56,106.02,103.56h24.27l-54.34-14.64c-41.43-11.19-71.19-46.71-75.48-88.65Z"/>
      <path class="st0" d="M356.26,265.46c0,23.17-18.83,41.95-42,41.95s-42-18.78-42-41.95c0-40.22-21.92-77.2-57.12-96.55l-47.86-26.31v162.93l51.94,23.75c18.99,8.63,35.51,21.08,48.96,36.51l.05.1c13.39,15.32,23.54,33.58,29.39,53.56h33.26c5.86-19.98,16.01-38.23,29.39-53.56l.05-.1c13.44-15.43,29.97-27.88,48.96-36.51l51.94-23.75v-162.93l-47.86,26.31c-35.2,19.35-57.12,56.33-57.12,96.55ZM225.44,318.13c-10.25-6.22-22.12-8.79-32.43-14.59-3.35-2.3-6.43-5.39-7.79-9.36l.52-.16c.89,1.78,2.35,3.19,3.77,4.5,7.74,6.33,18.31,6.54,27.3,10.36,25.63,10.2,50.47,27.98,61.82,53.82-13.44-17.73-32.43-34.15-53.19-44.56ZM295.22,368.23c-3.3-1.67-5.49-5.13-5.49-7.79,0-1.05.31-1.94.99-2.62,2.46-2.46,8.11-.05,10.41,4.5l6.28,12.24-12.19-6.33ZM320.38,355.52l-6.12,19.04-6.12-19.04c-2.25-7.06,1.05-15.38,6.12-15.38s8.37,8.32,6.12,15.38ZM333.29,368.23l-12.19,6.33,6.28-12.24c2.3-4.55,7.95-6.96,10.41-4.5.68.68.99,1.57.99,2.62,0,2.67-2.2,6.12-5.49,7.79ZM442.77,294.01l.52.16c-1.36,3.98-4.45,7.06-7.79,9.36-10.3,5.81-22.18,8.37-32.43,14.59-20.77,10.41-39.75,26.83-53.19,44.56,11.35-25.84,36.19-43.62,61.82-53.82,9-3.82,19.56-4.03,27.3-10.36,1.41-1.31,2.88-2.72,3.77-4.5Z"/>
      <path class="st0" d="M385.23,404.79l-54.34,14.64h24.27c57.74,0,104.71-46.13,106.02-103.56h.05v-10.36c0,3.56-.21,7.06-.52,10.62-4.29,41.95-34.05,77.46-75.48,88.65Z"/>
    </g>
    <path class="st0" d="M482.58,110.68c-4.63-2.74-9.92-4.19-15.31-4.19-5.05,0-10.05,1.29-14.48,3.72l-47.86,26.31c-11.87,6.53-22.8,14.84-32.31,24.52-.95.9-1.87,1.84-2.78,2.77l-.24.25c-.97.92-1.9,1.87-2.83,2.82l-.19.2c-.97.93-1.91,1.89-2.85,2.84l-.17.18c-.98.94-1.92,1.9-2.87,2.86l-.15.16c-.98.94-1.93,1.9-2.88,2.87l-.14.15c-.97.92-1.9,1.87-2.83,2.82l-.19.2c-.95.91-1.87,1.85-2.79,2.78l-.22.23c-.96.91-1.88,1.85-2.81,2.79l-.22.23c-.99.95-1.95,1.92-2.9,2.9l-.11.12c-.97.92-1.9,1.88-2.84,2.83l-.18.19c-.93.89-1.83,1.81-2.73,2.72l-.29.3c-.96.92-1.9,1.87-2.83,2.82l-.2.21c-.96.92-1.89,1.86-2.82,2.81l-.2.21c-.98.94-1.93,1.9-2.87,2.87l-.15.16c-9.48,9.05-17.65,19.44-24.25,30.75-7.53-41.01-33.08-77.06-70.4-97.58l-47.86-26.31c-4.43-2.43-9.44-3.72-14.48-3.72-5.38,0-10.68,1.45-15.3,4.19-2.7,1.6-5.16,3.66-7.31,6.13-1.05.91-2.06,1.92-3.02,3.02-1.05.91-2.07,1.92-3.02,3.02-1.05.91-2.06,1.92-3.02,3.02-1.05.91-2.07,1.92-3.02,3.02-1.05.91-2.07,1.92-3.02,3.02-1.05.91-2.06,1.92-3.02,3.02-1.05.91-2.07,1.92-3.02,3.02-1.05.91-2.07,1.92-3.02,3.02-1.05.91-2.06,1.92-3.02,3.02-1.05.91-2.06,1.92-3.02,3.02-1.05.91-2.07,1.92-3.02,3.02-1.05.91-2.06,1.92-3.02,3.02-1.05.91-2.06,1.92-3.02,3.02-1.05.91-2.06,1.92-3.02,3.02-6.67,5.73-10.48,13.99-10.48,22.77v173.28c0,.91.04,1.81.12,2.7,2.73,72.21,63.7,130.92,136.01,130.92h81.81c36.64,0,71.14-14.64,96.96-41.04,1.09-1.04,2.14-2.11,3.03-3.03,1.09-1.04,2.14-2.12,3.02-3.02,1.08-1.04,2.13-2.11,3.02-3.02,1.09-1.04,2.14-2.12,3.02-3.02,1.09-1.04,2.14-2.12,3.02-3.02,1.09-1.04,2.14-2.12,3.02-3.02,1.09-1.04,2.14-2.12,3.02-3.02,1.09-1.04,2.14-2.12,3.02-3.02,1.09-1.04,2.14-2.12,3.02-3.02,1.09-1.04,2.14-2.11,3.02-3.02,1.07-1.02,2.1-2.07,3.02-3.02,1.09-1.04,2.14-2.12,3.03-3.03,1.08-1.04,2.14-2.11,3.02-3.02,1.09-1.04,2.15-2.12,3.02-3.02,25.81-24.72,40.74-57.7,42.07-92.89.08-.89.12-1.8.12-2.71v-173.28c0-10.58-5.66-20.49-14.76-25.88ZM489.97,299.48v10.36c0,.76-.04,1.5-.11,2.24-1.25,34.44-16.36,65.58-39.81,88.04-1,1.02-1.99,2.04-3.02,3.02-1,1.02-1.99,2.04-3.02,3.02-1,1.02-2,2.04-3.03,3.03-1,1.02-1.99,2.03-3.02,3.02-1,1.02-1.99,2.04-3.02,3.02-1,1.02-1.99,2.04-3.02,3.02-1,1.02-1.99,2.04-3.02,3.02-1,1.02-1.99,2.04-3.02,3.02-1,1.02-1.99,2.04-3.02,3.02-1,1.02-1.99,2.04-3.02,3.02-1,1.02-1.99,2.04-3.02,3.02-1,1.02-1.99,2.03-3.02,3.02-1,1.02-1.99,2.04-3.02,3.02-1,1.02-1.99,2.04-3.02,3.02-23.48,24-56.11,39-91.87,39h-81.8c-68.82,0-126.18-55.48-128.66-124.03-.07-.73-.11-1.48-.11-2.23v-173.28c0-6.86,3.11-13.26,8.32-17.53.91-1.09,1.91-2.11,3.02-3.02.91-1.09,1.91-2.11,3.02-3.02.91-1.09,1.91-2.11,3.02-3.02.91-1.09,1.91-2.11,3.02-3.02.91-1.09,1.91-2.11,3.02-3.02.91-1.09,1.91-2.11,3.02-3.02.91-1.09,1.91-2.11,3.02-3.02.91-1.09,1.91-2.11,3.02-3.02.91-1.09,1.91-2.11,3.02-3.02.91-1.09,1.91-2.11,3.02-3.02.91-1.09,1.91-2.11,3.02-3.02.91-1.09,1.91-2.11,3.02-3.02.91-1.09,1.91-2.11,3.02-3.02.91-1.09,1.91-2.11,3.02-3.02,1.63-1.96,3.58-3.69,5.84-5.03,3.56-2.1,7.55-3.16,11.55-3.16,3.76,0,7.52.94,10.93,2.81l47.86,26.31c42.49,23.36,68.88,67.98,68.88,116.44,0,.97.15,1.91.29,2.84,6.86-20.31,18.55-38.72,34.12-53.58,1-1.02,1.99-2.04,3.02-3.02,1-1.02,1.99-2.03,3.02-3.02,1-1.02,1.99-2.04,3.02-3.02,1-1.02,1.99-2.04,3.02-3.02,1-1.02,1.99-2.04,3.02-3.02,1-1.02,1.99-2.03,3.02-3.02,1-1.02,1.99-2.04,3.02-3.02,1-1.02,1.99-2.04,3.02-3.02,1-1.02,1.99-2.03,3.02-3.02,1-1.02,1.99-2.04,3.02-3.02,1-1.02,1.99-2.04,3.02-3.02,1-1.02,1.99-2.04,3.02-3.02,1-1.02,1.99-2.03,3.02-3.02,1-1.02,1.99-2.04,3.02-3.02,8.95-9.12,19.24-17.06,30.77-23.4l47.86-26.31c3.41-1.87,7.18-2.81,10.93-2.81,4,0,8,1.06,11.55,3.16,6.91,4.09,11.15,11.51,11.15,19.54v162.92Z"/>
  </g>
</svg>